<?xml version="1.0" encoding="UTF-8" standalone="no"?>
<svg
   width="20"
   height="20"
   viewBox="0 0 20 20"
   fill="none"
   xmlns="http://www.w3.org/2000/svg">
  <path
     style="fill:#f9f9f9;stroke-width:0.0155857"
     d="M 11.915558,2.504804 C 9.434128,2.8305443 5.0942499,2.0919981 3.6161298,1.5930527 5.5481141,4.2291807 3.3755723,4.593262 4.4656876,7.8721485 4.665213,7.2952961 4.7663155,6.4527215 5.7863153,4.7574309 6.0818896,4.9061689 6.8827677,5.5725143 8.2451009,5.2750338 7.2753052,5.1620133 6.6321633,4.8160765 6.2349683,4.2563182 6.5125213,4.0309342 7.2014024,3.6779619 7.3826771,3.6756489 7.7734522,4.0159146 8.5003792,4.7576496 9.9619516,4.3647387 8.8730053,4.1931312 8.4156392,3.9950458 8.1204052,3.5192229 8.9703897,3.3009536 9.9308241,3.3326389 10.840123,3.3001606 10.738182,4.9145238 10.527414,6.1951941 10.822523,7.9289067 10.753793,8.4479127 10.6713,8.6918741 10.575362,9.3642479 9.5897119,11.979732 9.7242591,12.794628 9.6446638,14.52482 6.5679469,15.389712 7.1497585,19.15497 10.512844,18.995054 7.4317433,17.754304 8.5150643,14.872463 13.069,15.284024 c -0.471943,0.840536 -1.350814,0.783364 -1.435118,0.796064 0.672502,0.208524 1.805419,0.0038 2.376203,-0.706687 C 14.691052,14.34973 14.647851,6.7222445 16.383874,2.6533557 13.20067,6.135419 13.21491,13.629229 12.748665,14.133274 c -0.198744,0.206344 -0.766841,0.112699 -0.902848,-0.194944 -0.04939,-0.126856 -0.0664,-0.707139 -0.0485,-0.768476 0.0081,-0.02789 0.165934,-0.06458 1.061151,0.227272 -0.460615,-0.585643 -1.013106,-0.568732 -1.040217,-0.59158 -0.05901,-0.04973 -0.03507,-0.599436 -0.03507,-0.599436 0,0 -8.4e-5,-1.02e-4 -6.7e-5,-1.18e-4 0.01669,-0.03298 0.47678,-0.143793 1.130435,0.191484 -0.352282,-0.512486 -1.122818,-0.612233 -1.122818,-0.612233 0,0 -0.01727,-0.262571 0.02692,-0.54742 0.01345,-0.05179 0.08188,-0.01796 1.192321,0.29345 -0.239972,-0.346556 -0.753281,-0.551537 -1.156703,-0.660132 -0.01055,-0.402984 0.0017,-0.480225 0.04323,-0.54931 0.500925,-0.07487 0.899581,0.145672 1.274319,0.330093 -0.329673,-0.393484 -0.788977,-0.648954 -1.224033,-0.6854134 -0.01075,-0.1605651 0.02041,-0.4084317 0.06885,-0.4913555 0.514236,0.040951 0.764749,0.137971 1.294905,0.3000005 -0.250719,-0.4195317 -0.931764,-0.5612936 -1.221918,-0.7018369 -0.01455,-0.013149 0.05325,-0.4144574 0.09431,-0.5581364 0.284614,-0.0704 0.935435,0.070373 1.26119,0.2752544 C 13.264574,8.3567115 12.55765,8.1867285 12.25943,8.1077739 12.35387,7.7401735 12.389777,7.6333514 12.427513,7.468836 c 0.315059,0.015615 0.345142,0.045325 1.341216,0.3319928 -0.56242,-0.6077943 -1.20855,-0.6898828 -1.225413,-0.7161797 0.01692,-0.088778 0.08869,-0.3862579 0.182751,-0.5368553 0.476914,0.021826 0.477677,0.030709 1.224144,0.2426401 -0.64485,-0.6367048 -1.084675,-0.5853828 -1.102369,-0.6060815 -0.02003,-0.035389 0.162875,-0.5286543 0.222068,-0.5673797 0.07015,-0.088931 0.505409,0.00711 1.215341,0.3529066 -0.13879,-0.2954832 -0.666886,-0.63971 -0.958713,-0.7259179 -0.05744,-0.034399 0.03538,-0.363967 0.10461,-0.5210329 0.256074,-0.017694 0.791822,0.1169041 1.20419,0.3688928 -0.155535,-0.3856225 -0.711844,-0.59225 -1.009527,-0.7004995 -0.04699,-0.018387 0.174829,-0.3885511 0.242674,-0.4829762 0.09222,-0.040276 0.769552,0.1937355 1.156437,0.3781613 -0.229133,-0.3867584 -0.600608,-0.5700798 -0.9663,-0.7129739 -0.0017,-0.02242 0.221653,-0.3822177 0.332638,-0.477289 0.07701,-0.028207 0.58757,-0.00333 1.115424,0.3960448 -0.05063,-0.3045484 -0.580049,-0.6663832 -0.885547,-0.6975159 0.01222,-0.092244 0.267507,-0.4050288 0.357839,-0.4064212 0.138929,-0.012843 0.38664,-0.051436 0.945161,0.3373272 -0.28784,-0.4179558 -0.472977,-0.4954803 -0.758352,-0.6218527 -0.01677,-0.066125 0.244608,-0.2945382 0.365189,-0.3702086 0.266966,0.00873 0.573053,0.2046241 0.704222,0.3069387 -0.268659,-0.581473 -0.495416,-0.4990731 -0.470651,-0.5322129 0.08268,-0.1106328 0.391356,-0.3784493 0.460219,-0.3923475 -1.025069,0.032311 -2.256242,0.1284452 -2.69602,0.57484 0.415645,0.049789 0.536385,0.2436905 0.530229,0.4927784 -0.0061,0.249087 -0.338665,0.4992343 -0.590089,0.4964082 -0.251422,-0.00279 -0.534796,-0.176627 -0.55355,-0.4873504 C 12.896574,1.8819488 13.397575,1.5046335 13.66764,1.349211 13.870336,1.2325589 14.60778,1.0237255 15.013562,1.0802821 13.342107,0.75678374 12.419186,1.4468943 11.915559,2.504804 Z m 0.53426,0.7271555 c -0.357545,0.9127945 -0.875059,2.1096419 -1.214454,3.2473649 0.005,-1.8146923 0.556936,-3.2023106 0.538561,-3.2453362 0.439965,2.853e-4 0.482589,0.00207 0.675893,-0.00198 z m -1.358054,7.2035665 c 0.199484,2.247217 -0.345069,3.017851 -0.550042,3.390134 -0.04306,-0.470545 -0.366321,-1.530815 0.550042,-3.390134 z"
     id="path1" />
</svg>
