<svg width="1080" height="1080" viewBox="0 0 1080 1080" xmlns="http://www.w3.org/2000/svg" xmlns:svg="http://www.w3.org/2000/svg">
  <path
     style="fill:#f9f9f9;stroke-width:0.923632"
     d="M 653.51815,95.826798 C 506.46584,115.13047 249.2801,71.363368 161.68504,41.79537 276.1765,198.01513 147.42937,219.59095 212.0307,413.90124 c 11.82415,-34.18483 17.81563,-84.11669 78.26178,-184.5815 17.51616,8.81448 64.97707,48.3028 145.71029,30.67382 -57.47111,-6.69779 -95.58443,-27.19837 -119.12254,-60.37031 16.44807,-13.35638 57.27195,-34.27391 68.01443,-34.41105 23.15779,20.16459 66.23627,64.12058 152.85059,40.83625 -64.53211,-10.16965 -91.63616,-21.90842 -109.13203,-50.10619 50.37105,-12.9349 107.28739,-11.05712 161.17343,-12.98192 -6.04119,95.66901 -18.53157,171.56286 -1.04345,274.30453 -4.07267,30.75689 -8.9616,45.21434 -14.64689,85.05984 -58.41076,154.99646 -50.43731,203.2881 -55.15422,305.82108 -182.3296,51.25458 -147.85071,274.38771 51.44922,264.91091 -182.58922,-73.52817 -118.39055,-244.30908 151.48058,-219.91962 -27.96774,49.81112 -80.0506,46.423 -85.04666,47.17563 39.85319,12.35744 106.99108,0.22336 140.81636,-41.87898 40.35482,-60.66397 37.79485,-512.67695 140.67337,-753.80366 -188.64019,206.35077 -187.79633,650.44205 -215.42649,680.31232 -11.77774,12.22812 -45.44372,6.67862 -53.50369,-11.55262 -2.92627,-7.5176 -3.93523,-41.90575 -2.87432,-45.54068 0.48236,-1.65267 9.83344,-3.82691 62.88494,13.46841 -27.29641,-34.70586 -60.03777,-33.70371 -61.64433,-35.05768 -3.49675,-2.94699 -2.0785,-35.52324 -2.0785,-35.52324 0,0 -0.005,-0.006 -0.004,-0.007 0.9889,-1.95426 28.25446,-8.52124 66.99072,11.34759 -20.8766,-30.37049 -66.53937,-36.28159 -66.53937,-36.28159 0,0 -1.02328,-15.56023 1.59547,-32.44077 0.79645,-3.06911 4.85235,-1.06388 70.65824,17.39017 -14.22075,-20.53726 -44.64008,-32.68476 -68.54728,-39.12008 -0.62475,-23.88137 0.0989,-28.45875 2.56177,-32.55279 29.68533,-4.43692 53.31008,8.63271 75.51751,19.5617 -19.53686,-23.31825 -46.75569,-38.45767 -72.53741,-40.61837 -0.63635,-9.51527 1.20968,-24.20414 4.08006,-29.11827 30.47419,2.42691 45.31972,8.17632 76.73746,17.77843 -14.85788,-24.86199 -55.21739,-33.26289 -72.41216,-41.59166 -0.86236,-0.77953 3.15595,-24.56119 5.58876,-33.07572 16.86654,-4.17165 55.43492,4.17029 74.7395,16.31188 -10.64021,-25.70306 -52.53331,-35.77639 -70.20608,-40.45539 5.5967,-21.78433 7.7246,-28.11483 9.96079,-37.86409 18.67073,0.92547 20.45339,2.68576 79.48197,19.67421 -33.32921,-36.01855 -71.61957,-40.88321 -72.61895,-42.44157 1.00252,-5.26098 5.25544,-22.89008 10.83009,-31.81465 28.26246,1.29354 28.30762,1.81996 72.5441,14.37913 -38.21448,-37.73172 -64.27897,-34.69041 -65.32762,-35.91707 -1.18652,-2.09717 9.65227,-31.32858 13.16009,-33.62346 4.15687,-5.27028 29.95101,0.42244 72.02239,20.9136 -8.22482,-17.51068 -39.52039,-37.90991 -56.81444,-43.01869 -3.40368,-2.03824 2.09678,-21.56901 6.19935,-30.87697 15.17525,-1.04851 46.92427,6.92785 71.36162,21.86099 -9.21712,-22.85234 -42.18469,-35.09733 -59.82574,-41.51233 -2.78475,-1.08982 10.36071,-23.02596 14.38126,-28.62177 5.46511,-2.38652 45.60438,11.48104 68.53161,22.41031 -13.5787,-22.9197 -35.59266,-33.78355 -57.26397,-42.25165 -0.10353,-1.3283 13.13549,-22.65064 19.71249,-28.28458 4.56335,-1.6715 34.81997,-0.19687 66.10115,23.47001 -3.00011,-18.0479 -34.37423,-39.49062 -52.47831,-41.33562 0.72419,-5.46649 15.85272,-24.002371 21.20581,-24.084891 8.23313,-0.760815 22.91277,-3.047968 56.01132,19.990401 -17.05767,-24.76851 -28.0292,-29.362739 -44.94082,-36.851629 -0.99384,-3.918353 14.49574,-17.454738 21.64146,-21.939015 15.82078,0.517201 33.95982,12.126228 41.73298,18.189542 -15.92098,-34.45873 -29.35886,-29.575673 -27.89127,-31.539537 4.89935,-6.556191 23.1922,-22.427276 27.27313,-23.251001 -60.74677,1.914784 -133.70743,7.611798 -159.76907,34.065626 24.63159,2.950319 31.78674,14.441447 31.42193,29.202627 -0.3648,14.761179 -20.0696,29.585237 -34.96922,29.417657 -14.89962,-0.16758 -31.69261,-10.467023 -32.8041,-28.880834 -1.11149,-18.41381 28.57818,-40.773942 44.5826,-49.984479 12.0119,-6.912865 55.7136,-19.2885906 79.76073,-15.937011 C 738.05691,-7.7628048 683.36361,33.1338 653.51815,95.826798 Z m 31.66079,43.091942 c -21.18848,54.09319 -51.85696,125.01972 -71.96977,192.44233 0.29619,-107.54067 33.00452,-189.77242 31.91564,-192.32212 26.07281,0.0136 28.59872,0.12422 40.05413,-0.12021 z m -80.47973,426.89108 c 11.82164,133.1725 -20.44924,178.8412 -32.59605,200.90299 -2.55136,-27.88487 -21.70872,-90.71774 32.59605,-200.90299 z"/>
</svg>
